<svg width="32" height="32" viewBox="0 0 32 32" fill="none" xmlns="http://www.w3.org/2000/svg">
<rect width="32" height="32" rx="2" fill="white"/>
<path fill-rule="evenodd" clip-rule="evenodd" d="M16 10.48C17.69 10.48 18.83 11.21 19.48 11.82L22.02 9.34C20.46 7.89 18.43 7 16 7C12.48 7 9.43996 9.02 7.95996 11.96L10.87 14.22C11.6 12.05 13.62 10.48 16 10.48Z" fill="#EA4335"/>
<path fill-rule="evenodd" clip-rule="evenodd" d="M24.64 16.1994C24.64 15.4594 24.58 14.9194 24.45 14.3594H16V17.6994H20.96C20.86 18.5294 20.32 19.7794 19.12 20.6194L21.96 22.8194C23.66 21.2494 24.64 18.9394 24.64 16.1994Z" fill="#4285F4"/>
<path fill-rule="evenodd" clip-rule="evenodd" d="M10.88 17.779C10.69 17.219 10.58 16.619 10.58 15.999C10.58 15.379 10.69 14.779 10.87 14.219L7.96 11.959C7.35 13.179 7 14.549 7 15.999C7 17.449 7.35 18.819 7.96 20.039L10.88 17.779Z" fill="#FBBC05"/>
<path fill-rule="evenodd" clip-rule="evenodd" d="M15.9997 24.9993C18.4297 24.9993 20.4697 24.1993 21.9597 22.8193L19.1197 20.6193C18.3597 21.1493 17.3397 21.5193 15.9997 21.5193C13.6197 21.5193 11.5997 19.9493 10.8797 17.7793L7.96973 20.0393C9.44973 22.9793 12.4797 24.9993 15.9997 24.9993Z" fill="#34A853"/>
</svg>
