<svg xmlns="http://www.w3.org/2000/svg" width="349" height="90" fill="none"  xmlns:v="https://vecta.io/nano"><path d="M0 17a2 2 0 0 1 2-2h344.734a2 2 0 0 1 1.985 2.248l-5.511 44.091a2 2 0 0 1-1.88 1.749L2.105 80.89A2 2 0 0 1 0 78.892V17z" fill="#4a70f6"/><circle cx="338.149" cy="57.281" r="1.121" transform="rotate(226.442 338.149 57.281)" stroke="#fff" stroke-width=".757"/><mask id="A" mask-type="alpha" maskUnits="userSpaceOnUse" x="173" y="34" width="85" height="56"><path d="M257.141 66.884L183.08 89.587 173 56.703 247.061 34l10.08 32.884z" fill="#c4c4c4"/></mask><g mask="url(#A)"><circle cx="220.844" cy="81.139" r="31.202" transform="rotate(342.958 220.844 81.139)" stroke="#fff" stroke-width="1.3"/></g><circle cx="254.739" cy="30.725" r="5.029" transform="rotate(226.442 254.739 30.725)" stroke="#ffcc21" stroke-width="2.286"/><circle cx="248.201" cy="46.405" r="2.221" transform="rotate(226.442 248.201 46.405)" stroke="#fff" stroke-width="1.5"/><path d="M278 29c0-14.912 12.088-27 27-27h0c14.912 0 27 12.088 27 27h0c0 14.912-12.088 27-27 27h0c-14.912 0-27-12.088-27-27h0z" stroke="#ffcc21" stroke-width="2.111"/><path fill-rule="evenodd" d="M303.65 2c-12.675 0-22.95 10.275-22.95 22.95s10.275 22.95 22.95 22.95h2.7c12.675 0 22.95-10.275 22.95-22.95S319.025 2 306.35 2h-2.7zm3.732 15.992h4.286c.79 0 1.43-.558 1.43-1.246s-.64-1.246-1.43-1.246h-13.341c-.789 0-1.429.558-1.429 1.246s.64 1.246 1.429 1.246h5.897c.496.746.84 1.622.936 2.492h-6.833c-.789 0-1.429.558-1.429 1.246s.64 1.246 1.429 1.246h6.262c-.792 1.147-2.568 2.237-6.35 2.494a1.6 1.6 0 0 0-.406.074c-.359.115-.647.351-.804.647s-.176.641-.044.953c.049.115.117.222.199.318l7.611 9.122c.464.557 1.358.68 1.996.275s.78-1.184.316-1.741l-6.227-7.464c3.789-.711 5.991-2.418 6.813-4.652l.01-.028h3.965c.79 0 1.43-.558 1.43-1.246s-.64-1.246-1.43-1.246h-3.638a7.57 7.57 0 0 0-.648-2.492z" fill="#ffcc21"/><g opacity=".15" fill="#d5f3eb"><circle cx="220" cy="80" r="1"/><circle cx="238" cy="80" r="1"/><circle cx="262" cy="80" r="1"/><circle cx="226" cy="80" r="1"/><circle cx="244" cy="80" r="1"/><circle cx="268" cy="80" r="1"/><circle cx="232" cy="80" r="1"/><circle cx="256" cy="80" r="1"/><circle cx="250" cy="80" r="1"/><circle cx="280" cy="80" r="1"/><circle cx="274" cy="80" r="1"/><circle cx="220" cy="56" r="1"/><circle cx="238" cy="56" r="1"/><circle cx="262" cy="56" r="1"/><circle cx="226" cy="56" r="1"/><circle cx="244" cy="56" r="1"/><circle cx="268" cy="56" r="1"/><circle cx="232" cy="56" r="1"/><circle cx="256" cy="56" r="1"/><circle cx="250" cy="56" r="1"/><circle cx="280" cy="56" r="1"/><circle cx="274" cy="56" r="1"/><circle cx="220" cy="68" r="1"/><circle cx="238" cy="68" r="1"/><circle cx="262" cy="68" r="1"/><circle cx="226" cy="68" r="1"/><circle cx="244" cy="68" r="1"/><circle cx="268" cy="68" r="1"/><circle cx="232" cy="68" r="1"/><circle cx="256" cy="68" r="1"/><circle cx="250" cy="68" r="1"/><circle cx="280" cy="68" r="1"/><circle cx="274" cy="68" r="1"/><circle cx="220" cy="44" r="1"/><circle cx="238" cy="44" r="1"/><circle cx="262" cy="44" r="1"/><circle cx="226" cy="44" r="1"/><circle cx="244" cy="44" r="1"/><circle cx="268" cy="44" r="1"/><circle cx="232" cy="44" r="1"/><circle cx="256" cy="44" r="1"/><circle cx="250" cy="44" r="1"/><circle cx="280" cy="44" r="1"/><circle cx="274" cy="44" r="1"/><circle cx="220" cy="74" r="1"/><circle cx="238" cy="74" r="1"/><circle cx="262" cy="74" r="1"/><circle cx="226" cy="74" r="1"/><circle cx="244" cy="74" r="1"/><circle cx="268" cy="74" r="1"/><circle cx="232" cy="74" r="1"/><circle cx="256" cy="74" r="1"/><circle cx="250" cy="74" r="1"/><circle cx="280" cy="74" r="1"/><circle cx="274" cy="74" r="1"/><circle cx="220" cy="50" r="1"/><circle cx="238" cy="50" r="1"/><circle cx="262" cy="50" r="1"/><circle cx="226" cy="50" r="1"/><circle cx="244" cy="50" r="1"/><circle cx="268" cy="50" r="1"/><circle cx="232" cy="50" r="1"/><circle cx="256" cy="50" r="1"/><circle cx="250" cy="50" r="1"/><circle cx="280" cy="50" r="1"/><circle cx="274" cy="50" r="1"/><circle cx="220" cy="62" r="1"/><circle cx="238" cy="62" r="1"/><circle cx="262" cy="62" r="1"/><circle cx="226" cy="62" r="1"/><circle cx="244" cy="62" r="1"/><circle cx="268" cy="62" r="1"/><circle cx="232" cy="62" r="1"/><circle cx="256" cy="62" r="1"/><circle cx="250" cy="62" r="1"/><circle cx="280" cy="62" r="1"/><circle cx="274" cy="62" r="1"/><circle cx="220" cy="38" r="1"/><circle cx="238" cy="38" r="1"/><circle cx="262" cy="38" r="1"/><circle cx="226" cy="38" r="1"/><circle cx="244" cy="38" r="1"/><circle cx="268" cy="38" r="1"/><circle cx="232" cy="38" r="1"/><circle cx="256" cy="38" r="1"/><circle cx="250" cy="38" r="1"/><circle cx="280" cy="38" r="1"/><circle cx="274" cy="38" r="1"/></g><path d="M14 10a2 2 0 0 1 2-2h87a2 2 0 0 1 2 2v11a2 2 0 0 1-2 2H16a2 2 0 0 1-2-2V10z" fill="#67c473"/><g fill="#fbfcfd"><path d="M27.192 12.592V19h-1.044l-3.195-4.086V19h-1.314v-6.408h1.035l3.195 4.077v-4.077h1.323zm4.228 6.489c-.636 0-1.191-.132-1.665-.396-.468-.27-.831-.654-1.089-1.152-.252-.498-.378-1.08-.378-1.746s.126-1.245.378-1.737a2.72 2.72 0 0 1 1.089-1.134c.474-.27 1.029-.405 1.665-.405s1.188.135 1.656.405c.468.264.828.642 1.08 1.134s.378 1.071.378 1.737-.126 1.248-.378 1.746a2.71 2.71 0 0 1-1.08 1.152c-.468.264-1.02.396-1.656.396zm0-1.098c.54 0 .96-.189 1.26-.567.306-.378.459-.921.459-1.629s-.153-1.248-.459-1.62c-.3-.372-.72-.558-1.26-.558s-.963.186-1.269.558c-.3.372-.45.912-.45 1.62 0 .714.15 1.26.45 1.638.306.372.729.558 1.269.558zm13.36-5.391L42.502 19h-1.125l-1.494-4.239L38.38 19h-1.125l-2.277-6.408h1.431l1.476 4.428 1.548-4.428h.981l1.512 4.491 1.512-4.491h1.341zm7.625 4.986h-2.997L48.795 19h-1.413l2.943-6.408h1.134L54.402 19h-1.386l-.612-1.422zm-.459-1.071l-1.035-2.403-1.035 2.403h2.07zm8.482-3.915L57.548 19h-1.125l-2.88-6.408h1.458l1.998 4.653 2.016-4.653h1.413zm4.158 4.986h-2.997L60.977 19h-1.413l2.943-6.408h1.134L66.584 19h-1.386l-.612-1.422zm-.459-1.071l-1.035-2.403-1.035 2.403h2.07zm3.004-3.915h1.404V19h-1.404v-6.408zm2.689 0h1.404v5.265h2.862V19H69.82v-6.408zm9.399 4.986h-2.997L75.611 19h-1.413l2.943-6.408h1.134L81.218 19h-1.386l-.612-1.422zm-.459-1.071l-1.035-2.403-1.035 2.403h2.07zm7.117-.819c.372.108.66.297.864.567s.306.6.306.99c0 .54-.201.969-.603 1.287-.402.312-.948.468-1.638.468h-3.042v-6.408h2.952c.666 0 1.191.15 1.575.45.39.294.585.699.585 1.215 0 .336-.09.63-.27.882-.174.252-.417.435-.729.549zm-2.745-.486h1.35c.36 0 .627-.06.801-.18.18-.126.27-.318.27-.576 0-.264-.09-.459-.27-.585-.174-.126-.441-.189-.801-.189h-1.35v1.53zm1.512 2.718c.378 0 .651-.063.819-.189.174-.132.261-.339.261-.621 0-.288-.087-.498-.261-.63-.168-.132-.441-.198-.819-.198h-1.512v1.638h1.512zm3.387-5.328h1.404v5.265h2.862V19h-4.266v-6.408zm5.124 0h4.419v1.089h-3.051v1.512h2.862v1.098h-2.862v1.62h3.051V19h-4.419v-6.408zM14.913 38.168h3.256c.821 0 1.459.202 1.914.605.462.396.693.939.693 1.628s-.235 1.236-.704 1.639c-.462.396-1.096.594-1.903.594h-2.123V46h-1.133v-7.832zm3.124 3.564c.543 0 .95-.114 1.221-.341.279-.227.418-.557.418-.99 0-.425-.139-.752-.418-.979-.271-.227-.678-.341-1.221-.341h-1.991v2.651h1.991zm8.906-1.276V46h-1.1v-.946a1.69 1.69 0 0 1-.726.759c-.315.176-.686.264-1.111.264a2.39 2.39 0 0 1-1.298-.352c-.367-.235-.653-.565-.858-.99-.205-.433-.308-.935-.308-1.507s.103-1.078.308-1.518a2.46 2.46 0 0 1 .88-1.023c.374-.242.799-.363 1.276-.363.425 0 .796.092 1.111.275a1.77 1.77 0 0 1 .726.759v-.902h1.1zm-2.673 4.741c.499 0 .884-.172 1.155-.517.279-.352.418-.843.418-1.474 0-.638-.139-1.129-.418-1.474-.271-.345-.66-.517-1.166-.517-.499 0-.891.18-1.177.539-.279.352-.418.843-.418 1.474 0 .623.139 1.107.418 1.452.286.345.682.517 1.188.517zm9.343-4.741l-2.585 5.995c-.286.653-.645 1.129-1.078 1.43-.425.308-.953.513-1.584.616l-.242-.858c.521-.117.913-.271 1.177-.462.271-.183.488-.462.649-.836l.198-.462-2.332-5.423h1.177l1.738 4.29 1.771-4.29h1.111zm7.185-.132c1.232 0 1.848.741 1.848 2.222V46h-1.111v-3.399c0-.477-.084-.825-.253-1.045-.161-.22-.425-.33-.792-.33-.425 0-.763.147-1.012.44-.242.293-.363.693-.363 1.199V46h-1.111v-3.399c0-.477-.084-.825-.253-1.045-.161-.22-.425-.33-.792-.33-.425 0-.763.147-1.012.44s-.374.693-.374 1.199V46h-1.1v-3.982c0-.579-.029-1.1-.088-1.562h1.034l.099.924c.161-.337.392-.598.693-.781s.653-.275 1.056-.275c.858 0 1.419.356 1.683 1.067a1.89 1.89 0 0 1 .737-.781 2.18 2.18 0 0 1 1.111-.286zm8.17 2.926h-3.96c.037 1.298.627 1.947 1.771 1.947.638 0 1.221-.209 1.749-.627l.341.792c-.249.22-.568.396-.957.528-.381.125-.766.187-1.155.187-.887 0-1.584-.253-2.09-.759-.506-.513-.759-1.214-.759-2.101 0-.565.11-1.067.33-1.507.227-.44.543-.781.946-1.023a2.62 2.62 0 0 1 1.375-.363c.748 0 1.335.242 1.76.726.433.484.649 1.155.649 2.013v.187zm-2.387-2.101c-.418 0-.759.125-1.023.374s-.433.605-.506 1.067h2.937c-.044-.469-.187-.825-.429-1.067-.242-.249-.568-.374-.979-.374zm6.61-.825c1.327 0 1.991.741 1.991 2.222V46H54.07v-3.388c0-.484-.095-.836-.286-1.056-.183-.22-.48-.33-.891-.33-.469 0-.847.147-1.133.44-.279.293-.418.686-.418 1.177V46h-1.1v-3.982c0-.579-.029-1.1-.088-1.562h1.034l.099.957a1.83 1.83 0 0 1 .759-.803 2.28 2.28 0 0 1 1.144-.286zm5.014.99v2.783c0 .381.081.653.242.814.169.154.4.231.693.231.191 0 .385-.029.583-.088v.902c-.242.081-.517.121-.825.121-.572 0-1.016-.161-1.331-.484s-.473-.792-.473-1.408v-2.871h-1.078v-.858h1.078V39.07l1.111-.385v1.771h1.529v.858h-1.529zm10.196.649c.455.125.807.352 1.056.682s.374.737.374 1.221c0 .675-.235 1.199-.704 1.573-.462.374-1.111.561-1.947.561h-3.39v-7.832h3.278c.807 0 1.434.18 1.881.539.455.359.682.862.682 1.507 0 .418-.11.781-.33 1.089a1.82 1.82 0 0 1-.902.66zm-3.487-.396h1.98c1.093 0 1.639-.422 1.639-1.265 0-.814-.546-1.221-1.639-1.221h-1.98v2.486zm2.156 3.52c.572 0 .99-.103 1.254-.308.264-.213.396-.539.396-.979 0-.447-.136-.777-.407-.99-.264-.22-.678-.33-1.243-.33h-2.156v2.607h2.156zm8.971-4.631V46h-1.078v-.924c-.176.323-.418.572-.726.748-.308.169-.656.253-1.045.253-1.335 0-2.002-.741-2.002-2.222v-3.399h1.1v3.388c0 .455.092.792.275 1.012.191.213.477.319.858.319.455 0 .818-.147 1.089-.44.279-.293.418-.682.418-1.166v-3.113h1.111zm3.068.858v2.783c0 .381.081.653.242.814.169.154.4.231.693.231.191 0 .385-.029.583-.088v.902c-.242.081-.517.121-.825.121-.572 0-1.016-.161-1.331-.484s-.473-.792-.473-1.408v-2.871H76.92v-.858h1.078V39.07l1.111-.385v1.771h1.529v.858h-1.529zm3.985 0v2.783c0 .381.081.653.242.814.169.154.4.231.693.231.191 0 .385-.029.583-.088v.902c-.242.081-.517.121-.825.121-.572 0-1.016-.161-1.331-.484s-.473-.792-.473-1.408v-2.871h-1.078v-.858h1.078V39.07l1.111-.385v1.771h1.529v.858h-1.529zm4.942 4.763c-.543 0-1.019-.117-1.43-.352a2.42 2.42 0 0 1-.957-1.001c-.22-.433-.33-.939-.33-1.518s.11-1.085.33-1.518c.227-.44.546-.777.957-1.012s.887-.352 1.43-.352c.535 0 1.008.117 1.419.352a2.34 2.34 0 0 1 .946 1.012c.227.433.341.939.341 1.518s-.114 1.085-.341 1.518a2.35 2.35 0 0 1-.946 1.001c-.411.235-.884.352-1.419.352zm-.011-.88c.513 0 .906-.169 1.177-.506s.407-.832.407-1.485c0-.638-.139-1.129-.418-1.474-.271-.345-.656-.517-1.155-.517-.506 0-.898.172-1.177.517s-.418.836-.418 1.474c0 .653.136 1.148.407 1.485.279.337.671.506 1.177.506zm6.964-4.873c1.327 0 1.991.741 1.991 2.222V46h-1.111v-3.388c0-.484-.095-.836-.286-1.056-.183-.22-.48-.33-.891-.33-.469 0-.847.147-1.133.44-.279.293-.418.686-.418 1.177V46h-1.1v-3.982c0-.579-.029-1.1-.088-1.562h1.034l.099.957a1.83 1.83 0 0 1 .759-.803 2.28 2.28 0 0 1 1.144-.286zm5.508 5.753c-.968 0-1.731-.235-2.288-.704l.33-.803c.579.44 1.243.66 1.991.66.381 0 .671-.062.869-.187.198-.132.297-.315.297-.55 0-.198-.07-.352-.209-.462-.132-.117-.359-.216-.682-.297l-.924-.22c-.484-.103-.854-.282-1.111-.539a1.37 1.37 0 0 1-.374-.979 1.46 1.46 0 0 1 .594-1.21c.403-.308.935-.462 1.595-.462.396 0 .77.062 1.122.187a2.61 2.61 0 0 1 .913.528l-.341.781c-.535-.425-1.1-.638-1.694-.638-.359 0-.638.07-.836.209-.198.132-.297.319-.297.561 0 .191.062.345.187.462s.323.209.594.275l.946.231c.528.117.917.304 1.166.561.257.249.385.576.385.979a1.39 1.39 0 0 1-.605 1.188c-.396.286-.939.429-1.628.429z"/><path opacity=".5" d="M20.27 61l-.76-1.76h-3.6L15.15 61H14.1l3.17-7.12h.87L21.32 61h-1.05zm-4.01-2.58h2.9l-1.45-3.39-1.45 3.39zm8.082 2.65c-.507 0-.95-.107-1.33-.32-.373-.213-.66-.513-.86-.9-.2-.393-.3-.85-.3-1.37s.103-.98.31-1.38a2.3 2.3 0 0 1 .89-.93c.38-.22.823-.33 1.33-.33.353 0 .693.06 1.02.18.327.113.59.27.79.47l-.31.73c-.473-.373-.95-.56-1.43-.56-.487 0-.867.16-1.14.48-.273.313-.41.757-.41 1.33s.137 1.017.41 1.33c.273.307.653.46 1.14.46.493 0 .97-.187 1.43-.56l.31.73c-.213.2-.487.357-.82.47a3.12 3.12 0 0 1-1.03.17zm4.99 0c-.507 0-.95-.107-1.33-.32-.373-.213-.66-.513-.86-.9-.2-.393-.3-.85-.3-1.37s.103-.98.31-1.38a2.3 2.3 0 0 1 .89-.93c.38-.22.823-.33 1.33-.33.353 0 .693.06 1.02.18.327.113.59.27.79.47l-.31.73c-.473-.373-.95-.56-1.43-.56-.487 0-.867.16-1.14.48-.273.313-.41.757-.41 1.33s.137 1.017.41 1.33c.273.307.653.46 1.14.46.493 0 .97-.187 1.43-.56l.31.73c-.213.2-.487.357-.82.47a3.12 3.12 0 0 1-1.03.17zm7.1-2.57h-3.6c.033 1.18.57 1.77 1.61 1.77.58 0 1.11-.19 1.59-.57l.31.72c-.227.2-.517.36-.87.48a3.36 3.36 0 0 1-1.05.17c-.807 0-1.44-.23-1.9-.69-.46-.467-.69-1.103-.69-1.91 0-.513.1-.97.3-1.37.207-.4.493-.71.86-.93s.783-.33 1.25-.33c.68 0 1.213.22 1.6.66.393.44.59 1.05.59 1.83v.17zm-2.17-1.91c-.38 0-.69.113-.93.34s-.393.55-.46.97h2.67c-.04-.427-.17-.75-.39-.97-.22-.227-.517-.34-.89-.34zm5.999-.75c.433 0 .82.11 1.16.33a2.17 2.17 0 0 1 .79.93c.193.4.29.86.29 1.38s-.093.977-.28 1.37c-.187.387-.45.687-.79.9s-.73.32-1.17.32c-.387 0-.727-.08-1.02-.24-.287-.167-.503-.403-.65-.71v3.04h-1v-5.78c0-.527-.027-1-.08-1.42h.94l.1.93c.133-.333.35-.59.65-.77.3-.187.653-.28 1.06-.28zm-.23 4.43c.453 0 .807-.157 1.06-.47s.38-.753.38-1.32c0-.573-.127-1.02-.38-1.34-.253-.327-.607-.49-1.06-.49-.467 0-.823.157-1.07.47s-.37.76-.37 1.34.123 1.027.37 1.34c.253.313.61.47 1.07.47zm4.944-3.53v2.53c0 .347.073.593.22.74.153.14.363.21.63.21a1.86 1.86 0 0 0 .53-.08v.82c-.22.073-.47.11-.75.11-.52 0-.923-.147-1.21-.44s-.43-.72-.43-1.28v-2.61h-.98v-.78h.98V54.7l1.01-.35v1.61h1.39v.78h-1.39zm7.659-.9c.433 0 .82.11 1.16.33a2.17 2.17 0 0 1 .79.93c.193.4.29.86.29 1.38s-.093.977-.28 1.37c-.187.387-.45.687-.79.9s-.73.32-1.17.32c-.387 0-.727-.08-1.02-.24a1.6 1.6 0 0 1-.65-.71v3.04h-1v-5.78c0-.527-.027-1-.08-1.42h.94l.1.93c.133-.333.35-.59.65-.77.3-.187.653-.28 1.06-.28zm-.23 4.43c.453 0 .807-.157 1.06-.47s.38-.753.38-1.32c0-.573-.127-1.02-.38-1.34-.253-.327-.607-.49-1.06-.49-.467 0-.823.157-1.07.47s-.37.76-.37 1.34.123 1.027.37 1.34c.253.313.61.47 1.07.47zm8.264-4.31V61h-1v-.86c-.147.3-.367.53-.66.69-.287.16-.623.24-1.01.24-.447 0-.84-.107-1.18-.32-.333-.213-.593-.513-.78-.9-.187-.393-.28-.85-.28-1.37s.093-.98.28-1.38c.193-.4.46-.71.8-.93s.727-.33 1.16-.33c.387 0 .723.083 1.01.25a1.61 1.61 0 0 1 .66.69v-.82h1zm-2.43 4.31c.453 0 .803-.157 1.05-.47.253-.32.38-.767.38-1.34 0-.58-.127-1.027-.38-1.34-.247-.313-.6-.47-1.06-.47-.453 0-.81.163-1.07.49-.253.32-.38.767-.38 1.34 0 .567.127 1.007.38 1.32.26.313.62.47 1.08.47zm8.494-4.31l-2.35 5.45c-.26.593-.587 1.027-.98 1.3-.387.28-.867.467-1.44.56l-.22-.78c.473-.107.83-.247 1.07-.42.247-.167.443-.42.59-.76l.18-.42-2.12-4.93h1.07l1.58 3.9 1.61-3.9h1.01zm6.531-.12c1.12 0 1.68.673 1.68 2.02V61h-1.01v-3.09c0-.433-.077-.75-.23-.95-.147-.2-.387-.3-.72-.3-.387 0-.693.133-.92.4-.22.267-.33.63-.33 1.09V61h-1.01v-3.09c0-.433-.077-.75-.23-.95-.147-.2-.387-.3-.72-.3-.387 0-.693.133-.92.4s-.34.63-.34 1.09V61h-1v-3.62c0-.527-.027-1-.08-1.42h.94l.09.84c.147-.307.357-.543.63-.71s.593-.25.96-.25c.78 0 1.29.323 1.53.97a1.72 1.72 0 0 1 .67-.71c.3-.173.637-.26 1.01-.26zm7.427 2.66h-3.6c.033 1.18.57 1.77 1.61 1.77.58 0 1.11-.19 1.59-.57l.31.72c-.227.2-.517.36-.87.48a3.36 3.36 0 0 1-1.05.17c-.807 0-1.44-.23-1.9-.69-.46-.467-.69-1.103-.69-1.91 0-.513.1-.97.3-1.37.207-.4.493-.71.86-.93s.783-.33 1.25-.33c.68 0 1.213.22 1.6.66.393.44.59 1.05.59 1.83v.17zm-2.17-1.91c-.38 0-.69.113-.93.34s-.393.55-.46.97h2.67c-.04-.427-.17-.75-.39-.97-.22-.227-.517-.34-.89-.34zm6.009-.75c1.207 0 1.81.673 1.81 2.02V61h-1.01v-3.08c0-.44-.087-.76-.26-.96-.167-.2-.437-.3-.81-.3-.427 0-.77.133-1.03.4-.253.267-.38.623-.38 1.07V61h-1v-3.62c0-.527-.027-1-.08-1.42h.94l.09.87c.16-.32.39-.563.69-.73.307-.173.653-.26 1.04-.26zm4.558.9v2.53c0 .347.073.593.22.74.153.14.363.21.63.21a1.86 1.86 0 0 0 .53-.08v.82c-.22.073-.47.11-.75.11-.52 0-.923-.147-1.21-.44s-.43-.72-.43-1.28v-2.61h-.98v-.78h.98V54.7l1.01-.35v1.61h1.39v.78h-1.39zm4.083 4.33c-.88 0-1.573-.213-2.08-.64l.3-.73c.527.4 1.13.6 1.81.6.347 0 .61-.057.79-.17a.57.57 0 0 0 .27-.5c0-.18-.063-.32-.19-.42-.12-.107-.327-.197-.62-.27l-.84-.2c-.44-.093-.777-.257-1.01-.49-.227-.24-.34-.537-.34-.89 0-.453.18-.82.54-1.1.367-.28.85-.42 1.45-.42.36 0 .7.057 1.02.17.327.113.603.273.83.48l-.31.71c-.487-.387-1-.58-1.54-.58-.327 0-.58.063-.76.19-.18.12-.27.29-.27.51a.55.55 0 0 0 .17.42c.113.107.293.19.54.25l.86.21c.48.107.833.277 1.06.51.233.227.35.523.35.89 0 .453-.183.813-.55 1.08-.36.26-.853.39-1.48.39zm8.056 0c-.493 0-.926-.107-1.3-.32s-.663-.517-.87-.91c-.2-.393-.3-.853-.3-1.38s.1-.987.3-1.38a2.19 2.19 0 0 1 .87-.92c.374-.213.807-.32 1.3-.32.487 0 .917.107 1.29.32s.66.52.86.92c.207.393.31.853.31 1.38s-.103.987-.31 1.38c-.2.393-.486.697-.86.91s-.803.32-1.29.32zm-.01-.8c.467 0 .824-.153 1.07-.46s.37-.757.37-1.35c0-.58-.126-1.027-.38-1.34-.246-.313-.596-.47-1.05-.47-.46 0-.816.157-1.07.47s-.38.76-.38 1.34c0 .593.123 1.043.37 1.35.254.307.61.46 1.07.46zm6.331-4.43c1.207 0 1.81.673 1.81 2.02V61h-1.01v-3.08c0-.44-.087-.76-.26-.96-.167-.2-.437-.3-.81-.3-.427 0-.77.133-1.03.4-.253.267-.38.623-.38 1.07V61h-1v-3.62a11.42 11.42 0 0 0-.08-1.42h.94l.09.87c.16-.32.39-.563.69-.73.307-.173.653-.26 1.04-.26zm10.494.12l-2.35 5.45c-.26.593-.587 1.027-.98 1.3-.387.28-.867.467-1.44.56l-.22-.78c.473-.107.83-.247 1.07-.42.246-.167.443-.42.59-.76l.18-.42-2.12-4.93h1.07l1.58 3.9 1.61-3.9h1.01zm2.883 5.11c-.494 0-.927-.107-1.3-.32s-.664-.517-.87-.91c-.2-.393-.3-.853-.3-1.38s.1-.987.3-1.38a2.18 2.18 0 0 1 .87-.92c.373-.213.806-.32 1.3-.32.486 0 .916.107 1.29.32a2.13 2.13 0 0 1 .86.92c.206.393.31.853.31 1.38s-.104.987-.31 1.38a2.14 2.14 0 0 1-.86.91c-.374.213-.804.32-1.29.32zm-.01-.8c.466 0 .823-.153 1.07-.46s.37-.757.37-1.35c0-.58-.127-1.027-.38-1.34-.247-.313-.597-.47-1.05-.47-.46 0-.817.157-1.07.47s-.38.76-.38 1.34c0 .593.123 1.043.37 1.35.253.307.61.46 1.07.46zm8.03-4.31V61h-.98v-.84c-.16.293-.38.52-.66.68-.28.153-.596.23-.95.23-1.213 0-1.82-.673-1.82-2.02v-3.09h1v3.08c0 .413.084.72.25.92.174.193.434.29.78.29.414 0 .744-.133.99-.4.254-.267.38-.62.38-1.06v-2.83h1.01zm3.99-.12a1.78 1.78 0 0 1 .48.07l-.02.92c-.18-.067-.377-.1-.59-.1-.46 0-.807.14-1.04.42-.227.273-.34.62-.34 1.04V61h-1v-3.62a11.42 11.42 0 0 0-.08-1.42h.94l.09.91a1.53 1.53 0 0 1 .62-.76 1.7 1.7 0 0 1 .94-.27zm10.745.12h.99l-1.92 5.04h-.92l-1.35-3.65-1.34 3.65h-.92l-1.92-5.04h1.05l1.37 3.85 1.39-3.85h.8l1.39 3.85 1.38-3.85zm6.162 2.54h-3.6c.033 1.18.57 1.77 1.61 1.77.58 0 1.11-.19 1.59-.57l.31.72c-.227.2-.517.36-.87.48-.347.113-.697.17-1.05.17-.807 0-1.44-.23-1.9-.69-.46-.467-.69-1.103-.69-1.91 0-.513.1-.97.3-1.37a2.27 2.27 0 0 1 .86-.93 2.38 2.38 0 0 1 1.25-.33c.68 0 1.213.22 1.6.66.393.44.59 1.05.59 1.83v.17zm-2.17-1.91c-.38 0-.69.113-.93.34s-.394.55-.46.97h2.67c-.04-.427-.17-.75-.39-.97-.22-.227-.517-.34-.89-.34zm5.999-.75c.44 0 .83.107 1.17.32s.603.517.79.91.28.85.28 1.37-.097.98-.29 1.38c-.187.393-.45.7-.79.92a2.09 2.09 0 0 1-1.16.33c-.387 0-.727-.08-1.02-.24-.287-.167-.504-.403-.65-.71V61h-1v-7.36h1v3.15c.146-.3.363-.533.65-.7.293-.167.633-.25 1.02-.25zm-.23 4.43c.453 0 .806-.16 1.06-.48.253-.327.38-.777.38-1.35 0-.567-.127-1.007-.38-1.32s-.607-.47-1.06-.47c-.46 0-.817.157-1.07.47-.247.313-.37.76-.37 1.34s.123 1.027.37 1.34c.253.313.61.47 1.07.47zm5.414.8c-.88 0-1.574-.213-2.08-.64l.3-.73a2.91 2.91 0 0 0 1.81.6c.346 0 .61-.057.79-.17a.57.57 0 0 0 .27-.5c0-.18-.064-.32-.19-.42-.12-.107-.327-.197-.62-.27l-.84-.2c-.44-.093-.777-.257-1.01-.49-.227-.24-.34-.537-.34-.89 0-.453.18-.82.54-1.1.366-.28.85-.42 1.45-.42.36 0 .7.057 1.02.17.326.113.603.273.83.48l-.31.71c-.487-.387-1-.58-1.54-.58-.327 0-.58.063-.76.19-.18.12-.27.29-.27.51 0 .173.056.313.17.42s.293.19.54.25l.86.21c.48.107.833.277 1.06.51.233.227.35.523.35.89 0 .453-.184.813-.55 1.08-.36.26-.854.39-1.48.39zm3.22-.07v-5.04h1V61h-1zm-.09-7.24h1.17v1.06h-1.17v-1.06zm3.88 2.98v2.53c0 .347.074.593.22.74.154.14.364.21.63.21.174 0 .35-.027.53-.08v.82c-.22.073-.47.11-.75.11-.52 0-.923-.147-1.21-.44s-.43-.72-.43-1.28v-2.61h-.98v-.78h.98V54.7l1.01-.35v1.61h1.39v.78h-1.39zm6.623 1.76h-3.6c.034 1.18.57 1.77 1.61 1.77.58 0 1.11-.19 1.59-.57l.31.72c-.226.2-.516.36-.87.48-.346.113-.696.17-1.05.17-.806 0-1.44-.23-1.9-.69-.46-.467-.69-1.103-.69-1.91 0-.513.1-.97.3-1.37.207-.4.494-.71.86-.93s.784-.33 1.25-.33c.68 0 1.214.22 1.6.66.394.44.59 1.05.59 1.83v.17zm-2.17-1.91c-.38 0-.69.113-.93.34s-.393.55-.46.97h2.67c-.04-.427-.17-.75-.39-.97-.22-.227-.516-.34-.89-.34z"/></g></svg>